# xmcd
#
# Track frame offsets: 
#        150
#        17659
#        35340
#        55126
#        69264
#        85060
#        94423
#        110044
#        132514
#        148790
#        165344
#        184424
#        190240
#        201772
#        215192
#        239752
#        257166
#
# Disc length: 3667 seconds
#
# Revision: 0
# Processed by: cddbd v1.5.2PL0 Copyright (c) Steve Scherf et al.
# Submitted via: ExactAudioCopy v0.99pb3
#
DISCID=030e5111
DTITLE=Various Artist - Barrelhouse Blues and Boogie Woogie Vol. 3
DYEAR=1998
DGENRE=Blues
TTITLE0=Champion Jack Dupree - Back Door Special
TTITLE1=Sunnyland Slim - Mary Lee
TTITLE2=Little Brother Montgomery - L.B.'s Boogie Woogie
TTITLE3=Champion Jack Dupree - New Vicksburg Blues
TTITLE4=Memphis Slim - Gone Mother Blues
TTITLE5=Eddie Boyd - Blue Coat Man
TTITLE6=Champion Jack Dupree - Anybody Here Want To Buy My Cabbage
TTITLE7=Memphis Slim - Celeste Boogie
TTITLE8=Speckled Red - Cow Cow Blues
TTITLE9=Champion Jack Dupree - It's The Blues
TTITLE10=Champion Jack Dupree - Lover's Lane
TTITLE11=Speckled Red - Pinetop's Boogie Woogie
TTITLE12=Champion Jack Dupree - Keep Your Big Mouth Shut
TTITLE13=Sunnyland Slim - Business Before Pleasure
TTITLE14=Champion Jack Dupree - See See Rider
TTITLE15=Eddie Boyd - Hello Mr. Highway Man
TTITLE16=Champion Jack Dupree - Gravier Street Special
EXTD=
EXTT0=
EXTT1=
EXTT2=
EXTT3=
EXTT4=
EXTT5=
EXTT6=
EXTT7=
EXTT8=
EXTT9=
EXTT10=
EXTT11=
EXTT12=
EXTT13=
EXTT14=
EXTT15=
EXTT16=
PLAYORDER=
